<mxfile host="app.diagrams.net" modified="2020-09-15T08:14:45.237Z" agent="5.0 (Windows)" etag="8TBsB_WPTLvlnydLzoc7" version="13.7.1" type="github">
  <diagram id="ILSqU1WjV-aL-BhG_Z8I" name="Page-1">
    <mxGraphModel dx="910" dy="487" grid="1" gridSize="10" guides="1" tooltips="1" connect="1" arrows="1" fold="1" page="1" pageScale="1" pageWidth="1169" pageHeight="827" math="0" shadow="0">
      <root>
        <mxCell id="0" />
        <mxCell id="1" parent="0" />
        <mxCell id="AqOj5L54o1SdLm4BFLtN-1" value="Trade Fairs and Exhibition - Onsite Preparatory Activities" style="swimlane;" vertex="1" parent="1">
          <mxGeometry x="40" y="50" width="1080" height="750" as="geometry" />
        </mxCell>
        <mxCell id="AqOj5L54o1SdLm4BFLtN-3" value="&lt;p style=&quot;margin-bottom: 0in ; line-height: 100% ; font-size: 10px&quot;&gt;&lt;font style=&quot;font-size: 10px&quot; face=&quot;Arial, serif&quot;&gt;Event Coordinator departs and embarks on on-site preparations&lt;/font&gt;&lt;/p&gt;" style="rounded=0;whiteSpace=wrap;html=1;fontSize=10;" vertex="1" parent="AqOj5L54o1SdLm4BFLtN-1">
          <mxGeometry x="469" y="200" width="120" height="60" as="geometry" />
        </mxCell>
        <mxCell id="AqOj5L54o1SdLm4BFLtN-10" value="End" style="rounded=1;whiteSpace=wrap;html=1;fontSize=10;" vertex="1" parent="AqOj5L54o1SdLm4BFLtN-1">
          <mxGeometry x="469" y="480" width="120" height="60" as="geometry" />
        </mxCell>
        <mxCell id="AqOj5L54o1SdLm4BFLtN-5" value="" style="edgeStyle=orthogonalEdgeStyle;rounded=0;orthogonalLoop=1;jettySize=auto;html=1;entryX=0.5;entryY=0;entryDx=0;entryDy=0;" edge="1" parent="1" source="AqOj5L54o1SdLm4BFLtN-2" target="AqOj5L54o1SdLm4BFLtN-3">
          <mxGeometry relative="1" as="geometry">
            <mxPoint x="569" y="240" as="targetPoint" />
          </mxGeometry>
        </mxCell>
        <mxCell id="AqOj5L54o1SdLm4BFLtN-2" value="Start" style="rounded=1;whiteSpace=wrap;html=1;fontSize=10;" vertex="1" parent="1">
          <mxGeometry x="509" y="110" width="120" height="60" as="geometry" />
        </mxCell>
        <mxCell id="AqOj5L54o1SdLm4BFLtN-9" value="" style="edgeStyle=orthogonalEdgeStyle;rounded=0;orthogonalLoop=1;jettySize=auto;html=1;fontSize=10;entryX=0.5;entryY=0;entryDx=0;entryDy=0;" edge="1" parent="1" source="AqOj5L54o1SdLm4BFLtN-6" target="AqOj5L54o1SdLm4BFLtN-10">
          <mxGeometry relative="1" as="geometry">
            <mxPoint x="569" y="530" as="targetPoint" />
          </mxGeometry>
        </mxCell>
        <mxCell id="AqOj5L54o1SdLm4BFLtN-6" value="&lt;p style=&quot;margin-bottom: 0in ; line-height: 100%&quot;&gt;&lt;br/&gt;&lt;font color=&quot;#000000&quot;&gt;&lt;font face=&quot;Arial, serif&quot;&gt;The Event Coordinator&lt;br/&gt;manages the Kenya Stand at the Event&lt;/font&gt;&lt;/font&gt;&lt;/p&gt;&lt;br/&gt;" style="whiteSpace=wrap;html=1;rounded=0;fontSize=10;" vertex="1" parent="1">
          <mxGeometry x="509" y="390" width="120" height="60" as="geometry" />
        </mxCell>
        <mxCell id="AqOj5L54o1SdLm4BFLtN-7" value="" style="edgeStyle=orthogonalEdgeStyle;rounded=0;orthogonalLoop=1;jettySize=auto;html=1;fontSize=10;" edge="1" parent="1" source="AqOj5L54o1SdLm4BFLtN-3" target="AqOj5L54o1SdLm4BFLtN-6">
          <mxGeometry relative="1" as="geometry" />
        </mxCell>
      </root>
    </mxGraphModel>
  </diagram>
</mxfile>
